<svg xmlns="http://www.w3.org/2000/svg" width="128" height="138" viewBox="0 0 128 138"><path d="M126.87,75.63s.06,17.05.11,24.26a2.57,2.57,0,0,1-1.64,2.49q-19.56,11.13-39.09,22.28-10.34,5.9-20.66,11.83a2.85,2.85,0,0,1-3.22-.07Q33,119.65,3.67,103C1.79,101.92,1,100.79,1,98.53c.16-7.06.05-14.12.05-21.16,0-.61.08-1.21.14-2.27,5,2.87,9.66,5.49,14.28,8.14q23,13.13,46,26.25c1.52.87,2.79,1.32,4.53.31,12.16-7,24.37-13.91,36.57-20.87.52-.29,1-.66,1.89-1.28,0-.77,0-5.77.06-11.07Q85.07,87.65,65.64,98.81a2.9,2.9,0,0,1-3.22.06C55.55,94.89,48.64,91,41.76,87Q22.22,75.9,2.67,64.75A2.61,2.61,0,0,1,1,62.25c.07-8.07,0-16.16.08-24.24a3.15,3.15,0,0,1,1.29-2.27q14.31-8.3,28.74-16.36a2.84,2.84,0,0,1,2.35.08c4.8,2.65,9.54,5.4,14.3,8.13l7.52,4.3L23.51,50c.89.61,1.37,1,1.89,1.27C37.6,58.26,49.81,65.17,62,72.18c1.74,1,3,.56,4.51-.31q23-13.17,46-26.25c4.62-2.64,9.25-5.29,14.28-8.14.06,1.06.14,1.66.14,2.26,0,7.06-.11,14.12,0,21.18a11.06,11.06,0,0,1-.21,1.9Z" fill="#54bad3"/><path d="M126.79,37.48l-14.28,8.13q-23,13.13-46,26.26c-1.52.87-2.78,1.31-4.52.31-12.16-7-24.38-13.92-36.57-20.87-.52-.3-1-.67-1.89-1.28L55.29,31.89l-7.52-4.31c-4.76-2.72-9.49-5.47-14.29-8.11a2.83,2.83,0,0,0-2.36-.09Q16.69,27.47,2.39,35.74A3.11,3.11,0,0,0,1.1,38C1,46.09,1.08,54.17,1,62.26a2.58,2.58,0,0,0,1.66,2.5Q22.23,75.88,41.75,87c6.89,3.93,13.8,7.85,20.67,11.83a2.88,2.88,0,0,0,3.22-.07Q95,82,124.34,65.35a4.65,4.65,0,0,0,2.41-2.54,5.74,5.74,0,0,0,.24-1.9c-.12-5.17,0-14.76-.07-19.94C126.91,39.07,126.81,37.76,126.79,37.48Z" fill="#7274b4"/><path d="M118.45,31.87c-.72-.51-1.22-.93-1.77-1.24q-25.41-14.5-50.82-29a3.27,3.27,0,0,0-3.84.1c-6.71,4-13.51,7.8-20.28,11.68-.11.06-.18.19-.4.42L72.92,31.89,41.06,50.14c3.37,1.93,6.48,3.74,9.61,5.52,4,2.26,8,4.49,12,6.78a2.22,2.22,0,0,0,2.58.08Q91,47.72,116.92,33A16.29,16.29,0,0,0,118.45,31.87Z" fill="#54bad3"/></svg>